<svg xmlns="http://www.w3.org/2000/svg" xmlns:xlink="http://www.w3.org/1999/xlink" viewBox="0 0 260 60"><defs><style>.cls-1{fill:none;stroke:#000;stroke-miterlimit:10;}.cls-2{fill:url(#linear-gradient);}.cls-3{fill:url(#linear-gradient-2);}.cls-4{fill:url(#radial-gradient);}.cls-5{fill:#fff;}</style><linearGradient id="linear-gradient" x1="64.58" y1="32.84" x2="-7.58" y2="59.36" gradientUnits="userSpaceOnUse"><stop offset="0" stop-color="#4d2eb9"/><stop offset="0.11" stop-color="#6c29b1"/><stop offset="0.25" stop-color="#8e23a8"/><stop offset="0.39" stop-color="#a91ea2"/><stop offset="0.54" stop-color="#bc1b9d"/><stop offset="0.69" stop-color="#c7199a"/><stop offset="0.85" stop-color="#cb1899"/></linearGradient><linearGradient id="linear-gradient-2" x1="69.02" y1="5.87" x2="-27.41" y2="21.38" xlink:href="#linear-gradient"/><radialGradient id="radial-gradient" cx="52.58" cy="30.83" r="34.29" gradientUnits="userSpaceOnUse"><stop offset="0.01" stop-color="#662d91"/><stop offset="0.18" stop-color="#662d91"/><stop offset="0.56" stop-color="#662d91"/><stop offset="0.69" stop-color="#512f91"/><stop offset="0.88" stop-color="#373092"/><stop offset="1" stop-color="#2e3192"/></radialGradient></defs><g id="graphics"><path class="cls-1" d="M38.05,30,37.9,30"/><path class="cls-2" d="M56.17,45.5h0A11.89,11.89,0,0,1,44.28,57.39h-31A6.18,6.18,0,0,1,8.87,46.84l18-18C11.79,44,27,45.5,27,45.5Z"/><polygon class="cls-3" points="38.19 11.86 30.1 19.95 18.44 19.95 18.44 25.4 12.99 19.95 8.58 15.53 7.05 14.01 12.99 8.06 18.44 2.61 18.44 8.06 34.39 8.06 38.19 11.86"/><path class="cls-4" d="M56.17,8.06V24.18l-3.91-3.91L27,45.5S11.79,44,26.9,28.81l.12-.12L43.85,11.86l-3.8-3.8Z"/><path class="cls-5" d="M64.24,15.54H81.61v5.57L71.29,41.61h10.5v5.85H64.06V41.61l10-20.22H64.24Z"/><path class="cls-5" d="M84.33,39.72V27.24a7,7,0,0,1,2.16-5.46q2.17-2,6.54-2,8.43,0,8.43,7.42v9.35H91v2.58a2.28,2.28,0,0,0,.76,1.95c.5.39,1.62.58,3.36.58a20.2,20.2,0,0,0,5.69-.92v6.08a26.42,26.42,0,0,1-6.91.87Q84.32,47.73,84.33,39.72ZM91,31.29h4v-4c0-1.17-.68-1.75-2-1.75s-2,.58-2,1.75Z"/><path class="cls-5" d="M111.23,21.48a10.45,10.45,0,0,1,5.07-1.34,6,6,0,0,1,4.21,1.45A5.62,5.62,0,0,1,122.1,26V47.46h-7V27.65c0-.74-.4-1.1-1.2-1.1a4.38,4.38,0,0,0-2.21.59V47.46h-7V20.28h6.54Z"/><path class="cls-5" d="M129.49,19.5q-3.84,0-3.84-3.62t3.84-3.61q3.85,0,3.85,3.61T129.49,19.5ZM126,21h7V47.46h-7Z"/><path class="cls-5" d="M137.35,20.93a23,23,0,0,1,7.23-.88q4.69,0,6.72,2.05c1.36,1.37,2,3.43,2,6.2V47.46h-6.49v-2c-.89,1.38-2.45,2.07-4.66,2.07s-3.8-.53-4.79-1.59-1.47-2.75-1.47-5.09V39.31a7.31,7.31,0,0,1,1.36-4.75,8.34,8.34,0,0,1,4.4-2.49l5-1.29V28.25a2.07,2.07,0,0,0-.69-1.68,4.15,4.15,0,0,0-2.35-.49,17.69,17.69,0,0,0-6.31,1Zm5.39,18.65v1.29a1.4,1.4,0,0,0,1.61,1.57,4.69,4.69,0,0,0,2.3-.51V36.36l-2.12.55a2.47,2.47,0,0,0-1.47.83A3.65,3.65,0,0,0,142.74,39.58Z"/><path class="cls-5" d="M182.49,15.54v6h-5.76V47.46h-7V21.52H164v-6Z"/><path class="cls-5" d="M196.54,20.14h.78v6.41h-1.06a10.29,10.29,0,0,0-4.51.92v20h-7V20.28h6.54v1.84a17.09,17.09,0,0,1,3.3-1.7A6.54,6.54,0,0,1,196.54,20.14Z"/><path class="cls-5" d="M199.85,20.93a23,23,0,0,1,7.24-.88q4.69,0,6.72,2.05c1.35,1.37,2,3.43,2,6.2V47.46h-6.5v-2q-1.34,2.07-4.65,2.07T199.9,46c-1-1.06-1.47-2.75-1.47-5.09V39.31a7.31,7.31,0,0,1,1.36-4.75,8.34,8.34,0,0,1,4.39-2.49l5-1.29V28.25a2.1,2.1,0,0,0-.7-1.68,4.11,4.11,0,0,0-2.34-.49,17.75,17.75,0,0,0-6.32,1Zm5.39,18.65v1.29a1.41,1.41,0,0,0,1.62,1.57,4.69,4.69,0,0,0,2.3-.51V36.36l-2.12.55a2.44,2.44,0,0,0-1.47.83A3.63,3.63,0,0,0,205.24,39.58Z"/><path class="cls-5" d="M229.89,13.05h7V47.46h-6.77V45.52a5.63,5.63,0,0,1-4.72,2.12A5.91,5.91,0,0,1,220.81,46a6.56,6.56,0,0,1-1.52-4.6V28.53a8.36,8.36,0,0,1,2.12-6.06q2.11-2.19,6.45-2.19h2Zm0,13.4h-1.52q-2.16,0-2.16,2.31V40.13q0,1.2,1.38,1.2a4.38,4.38,0,0,0,2.3-.55Z"/><path class="cls-5" d="M240.58,39.72V27.24a7,7,0,0,1,2.16-5.46q2.16-2,6.54-2,8.43,0,8.43,7.42v9.35H247.25v2.58a2.3,2.3,0,0,0,.76,1.95,6.28,6.28,0,0,0,3.37.58,20.2,20.2,0,0,0,5.69-.92v6.08a26.48,26.48,0,0,1-6.91.87Q240.58,47.73,240.58,39.72Zm6.67-8.43h4.06v-4c0-1.17-.68-1.75-2-1.75s-2,.58-2,1.75Z"/></g></svg>