<svg id="Layer_1" data-name="Layer 1" xmlns="http://www.w3.org/2000/svg" viewBox="0 0 232.76 60"><defs><style>.cls-1{fill:#f13613;}.cls-2{fill:#fff;}</style></defs><path class="cls-1" d="M94,6.92a21.59,21.59,0,0,0-1.47-2.76A22.44,22.44,0,0,0,89.56.44a18.56,18.56,0,0,1,1,2.59c.13.45.24.88.32,1.3a8.33,8.33,0,0,1,.49,2.43,8.06,8.06,0,0,1-.16,2.1,13.06,13.06,0,0,1-1.79,2.76,13.44,13.44,0,0,1-3.26,2.75,59.1,59.1,0,0,1-6.36,3.72,36,36,0,0,1-4.89,2.11,29.52,29.52,0,0,1-3.75,1,29.33,29.33,0,0,1-8,0,29.92,29.92,0,0,1-6.85-1.78,9.3,9.3,0,0,0-3.91-.65,9.4,9.4,0,0,0-2.94.65l-1.79.81-1.78-.81A9.32,9.32,0,0,0,43,18.74a9.23,9.23,0,0,0-3.89.65,29.56,29.56,0,0,1-6.8,1.78,29,29,0,0,1-7.94,0,28.45,28.45,0,0,1-3.72-1,35.32,35.32,0,0,1-4.86-2.11,58.18,58.18,0,0,1-6.32-3.72,13.23,13.23,0,0,1-3.24-2.75A13.37,13.37,0,0,1,4.41,8.86a8.52,8.52,0,0,1-.16-2.1,8.71,8.71,0,0,1,.48-2.43c.09-.42.2-.85.33-1.3A17.42,17.42,0,0,1,6,.44,22.43,22.43,0,0,0,3.11,4.16,22.6,22.6,0,0,0,1.66,6.92a5.34,5.34,0,0,0-.49,3.89,5.3,5.3,0,0,0,1.46,2.43,87.13,87.13,0,0,0,7.45,6.64,86.08,86.08,0,0,0,7.29,5.18c6.48,4.16,9.44,5.52,10.85,5.83a2.31,2.31,0,0,1,1.62,1,2.61,2.61,0,0,1-.32,2.27,7.36,7.36,0,0,0-2.92,7c7.13,1.29,10.21-6,10.21-6a33.63,33.63,0,0,0,0,7.29,35.82,35.82,0,0,0,1.29,5.83,14.74,14.74,0,0,0,1,2.11c.37.72.69,1.27,1.11,1.26a.65.65,0,0,0,.35-.13A4.27,4.27,0,0,1,42.48,51a2.22,2.22,0,0,1,1.61.64s.21.28.16.34-.3-.07-.48-.17a2.45,2.45,0,0,0-2.59.16,2.25,2.25,0,0,0-.81,1.29,5.56,5.56,0,0,0,.67,3.2,5.72,5.72,0,0,0,3.38,2.63A13.46,13.46,0,0,0,46,59.4a16.1,16.1,0,0,0,1.62.16c.4,0,1-.06,1.63-.16a15.38,15.38,0,0,0,1.63-.33,5.74,5.74,0,0,0,3.4-2.63,5.68,5.68,0,0,0,.68-3.2A2.34,2.34,0,0,0,54.18,52a2.49,2.49,0,0,0-2.61-.16c-.18.1-.43.23-.48.17s.14-.31.16-.34A2.25,2.25,0,0,1,52.88,51a4.27,4.27,0,0,1,1.95.48.69.69,0,0,0,.36.13c.42,0,.74-.54,1.11-1.26a14,14,0,0,0,1-2.11,35.33,35.33,0,0,0,1.3-5.83,33.63,33.63,0,0,0,0-7.29s3.1,7.29,10.27,6a7.32,7.32,0,0,0-2.93-7,2.58,2.58,0,0,1-.33-2.27,2.34,2.34,0,0,1,1.63-1c1.42-.31,4.4-1.67,10.93-5.83a86.34,86.34,0,0,0,7.33-5.18A86.77,86.77,0,0,0,93,13.24a5.21,5.21,0,0,0,1.47-2.43A5.34,5.34,0,0,0,94,6.92Z"/><path id="Path_3685" data-name="Path 3685" class="cls-2" d="M111,20.23h13.5v12H120.8v3h14.52v-3h-3.91V7.05h3.92V4H120.8v3h3.72V17.29H111V7.05h3.91V4H100.4v3h3.72V32.2H100.4v3h14.53v-3H111Zm39.07,15.36a11.67,11.67,0,0,0,7.73-2.37,8.94,8.94,0,0,0,3.58-6.89,8.25,8.25,0,0,0-3.07-6.1,23.62,23.62,0,0,0-5.4-3.17,14,14,0,0,1-4-2.38,5,5,0,0,1-1.21-3.81,4.57,4.57,0,0,1,1-3.26,3,3,0,0,1,2.19-1c2.75,0,4.33,2.05,4.7,6.1h4.57V5.18A33.05,33.05,0,0,0,152,3.74a12,12,0,0,0-7.59,2.19A8,8,0,0,0,141,12.31a8.14,8.14,0,0,0,2.94,5.87,20.62,20.62,0,0,0,5.07,3,19.38,19.38,0,0,1,4.29,2.61,5.21,5.21,0,0,1,1.39,4,5,5,0,0,1-1.21,3.68A3.64,3.64,0,0,1,151,32.76a5.34,5.34,0,0,1-4-2,15.12,15.12,0,0,1-2.28-5l-4.19,1.07.93,7.12A31.3,31.3,0,0,0,150.09,35.59Zm33.44,0A17.75,17.75,0,0,0,193.72,32l-1.91-2.65c-3.21,2.09-5.91,3.11-8,3.11a8.62,8.62,0,0,1-7.21-3.53c-1.82-2.38-2.75-5.73-2.75-10s.88-7.26,2.7-9.36a10,10,0,0,1,7.78-3.49,5,5,0,0,1,3.49,1.16l1.95,5.5h4.52V5.88a17,17,0,0,0-8.89-2.51c-5.54,0-10,1.35-13.23,4.05a15.28,15.28,0,0,0-5.77,12.34,15.14,15.14,0,0,0,4.7,11.32Q175.77,35.55,183.53,35.55Zm31.38,0A17.75,17.75,0,0,0,225.11,32l-1.91-2.65c-3.21,2.09-5.91,3.12-8,3.12A8.63,8.63,0,0,1,208,28.89c-1.82-2.38-2.75-5.73-2.75-10s.88-7.26,2.7-9.36a10,10,0,0,1,7.78-3.49,5,5,0,0,1,3.49,1.16l2,5.5h4.52V5.88a17.05,17.05,0,0,0-8.9-2.51c-5.54,0-10,1.35-13.22,4.05a15.32,15.32,0,0,0-5.78,12.34,15.15,15.15,0,0,0,4.71,11.32q4.68,4.47,12.43,4.47Z"/><path id="Path_3684" data-name="Path 3684" class="cls-2" d="M103.2,39.45h.9l.74,2.06.75-2.06h.91l-1,2.7.92,2.23,1.89-5h1l-2.5,6.07H106l-1.13-2.72-1.14,2.72h-.82l-2.49-6.07h1l1.91,5,.89-2.23Zm11.19,5.19v.85h-4.16V39.42h4.08v.85h-3.12V42h2.7v.8h-2.7v1.85Zm.61.85,2.45-6.07h.78l2.44,6.07h-1L119,43.84h-2.35L116,45.49Zm2.84-5-1,2.64h2Zm3.77,5V39.42h1v5.22h3.25v.85Zm8.81-5.22h-2v5.22h-1V40.27h-2v-.85h5Zm6-.85v6.07h-1V42.81h-3.06v2.68h-1V39.42h1V42h3.06V39.42Zm3.84,7.18V38.87h.8V46.6Zm4.63-1.11V39.42h2.55a1.75,1.75,0,0,1,.75.17,2.06,2.06,0,0,1,.6.45,2.29,2.29,0,0,1,.39.63,2,2,0,0,1,.14.73,2.24,2.24,0,0,1-.13.73,2.31,2.31,0,0,1-.38.64,1.78,1.78,0,0,1-.57.44,1.75,1.75,0,0,1-.75.17h-1.64v2.11Zm1-3h1.58a.91.91,0,0,0,.37-.08,1,1,0,0,0,.29-.24,1.22,1.22,0,0,0,.18-.36,1.33,1.33,0,0,0,.07-.45,1.24,1.24,0,0,0-.08-.46,1,1,0,0,0-.21-.35.87.87,0,0,0-.31-.23.76.76,0,0,0-.36-.08h-1.53Zm7,3a2.46,2.46,0,0,1-1.16-.26,2.93,2.93,0,0,1-.91-.69,3.33,3.33,0,0,1-.79-2.12,3.27,3.27,0,0,1,.22-1.16,3.45,3.45,0,0,1,.6-1,3,3,0,0,1,.92-.67,2.72,2.72,0,0,1,1.15-.26,2.64,2.64,0,0,1,1.17.27,2.92,2.92,0,0,1,.9.7,3.27,3.27,0,0,1,.78,2.11A3.18,3.18,0,0,1,155,44.6a2.93,2.93,0,0,1-.91.68A2.68,2.68,0,0,1,152.92,45.53ZM151,42.46a2.51,2.51,0,0,0,.13.82,2.12,2.12,0,0,0,.38.71,1.78,1.78,0,0,0,.6.49,1.64,1.64,0,0,0,.78.19,1.75,1.75,0,0,0,.81-.19,1.93,1.93,0,0,0,.59-.51,2.43,2.43,0,0,0,.38-.71,2.72,2.72,0,0,0,.12-.8,2.38,2.38,0,0,0-.13-.84,2.41,2.41,0,0,0-.39-.7,1.77,1.77,0,0,0-.6-.48,1.74,1.74,0,0,0-1.57,0,2.08,2.08,0,0,0-.6.5,2.29,2.29,0,0,0-.37.71A2.45,2.45,0,0,0,151,42.46Zm7.91-3h.89l.74,2.06.76-2.06h.9l-1,2.7.92,2.23,1.88-5h1l-2.49,6.07h-.83l-1.13-2.72-1.13,2.72h-.82l-2.5-6.07h1l1.9,5,.9-2.23Zm11.18,5.19v.85H166V39.42h4.08v.85h-3.13V42h2.71v.8h-2.71v1.85Zm1.24.85V39.42H174a1.83,1.83,0,0,1,.76.17,2.15,2.15,0,0,1,.59.45,2.07,2.07,0,0,1,.39.63,2,2,0,0,1,.14.73,2.32,2.32,0,0,1-.08.58,2.53,2.53,0,0,1-.24.53,1.84,1.84,0,0,1-.38.41,1.44,1.44,0,0,1-.49.26l1.45,2.31h-1.09l-1.33-2.11h-1.4v2.11Zm1-3H174a.78.78,0,0,0,.37-.09.86.86,0,0,0,.29-.25,1.55,1.55,0,0,0,.19-.36,1.59,1.59,0,0,0,.06-.43,1.11,1.11,0,0,0-.08-.44,1.31,1.31,0,0,0-.21-.36,1,1,0,0,0-.31-.24.77.77,0,0,0-.36-.09h-1.62Zm7.22,4.07V38.87h.81V46.6Zm4.64-1.11V39.42h2.55a1.75,1.75,0,0,1,.75.17,1.89,1.89,0,0,1,.59.45,2.07,2.07,0,0,1,.39.63,2,2,0,0,1,0,1.46,2.06,2.06,0,0,1-.37.64,1.89,1.89,0,0,1-.57.44,1.79,1.79,0,0,1-.75.17h-1.64v2.11Zm1-3h1.58a.8.8,0,0,0,.66-.32,1.22,1.22,0,0,0,.18-.36,1.33,1.33,0,0,0,.07-.45,1.24,1.24,0,0,0-.08-.46,1.13,1.13,0,0,0-.21-.35.87.87,0,0,0-.31-.23.8.8,0,0,0-.37-.08h-1.52Zm4.56,3V39.42h2.64a1.83,1.83,0,0,1,.76.17,2.15,2.15,0,0,1,.59.45,2.07,2.07,0,0,1,.39.63,2,2,0,0,1,.14.73,2,2,0,0,1-.09.58,2.08,2.08,0,0,1-.23.53,2.1,2.1,0,0,1-.38.41,1.54,1.54,0,0,1-.49.26l1.45,2.31H193.4l-1.33-2.11h-1.4v2.11Zm1-3h1.67a.78.78,0,0,0,.37-.09.86.86,0,0,0,.29-.25,1.55,1.55,0,0,0,.19-.36,1.59,1.59,0,0,0,.06-.43,1.11,1.11,0,0,0-.08-.44,1.31,1.31,0,0,0-.21-.36,1,1,0,0,0-.31-.24.77.77,0,0,0-.36-.09h-1.62Zm9.13,2.11v.85h-4.16V39.42h4.08v.85h-3.13V42h2.71v.8h-2.71v1.85Zm4.74-3.79a1.59,1.59,0,0,0-.24-.2,2.75,2.75,0,0,0-.38-.2,2.13,2.13,0,0,0-.49-.15,2.6,2.6,0,0,0-.56-.06,1.34,1.34,0,0,0-.85.22.74.74,0,0,0-.3.62.63.63,0,0,0,.1.36.75.75,0,0,0,.28.25,2.07,2.07,0,0,0,.47.18l.66.18c.29.07.57.16.81.24a2.59,2.59,0,0,1,.64.33,1.31,1.31,0,0,1,.4.47,1.69,1.69,0,0,1,.15.7,1.88,1.88,0,0,1-.18.81,1.49,1.49,0,0,1-.49.54,2,2,0,0,1-.7.31,3.53,3.53,0,0,1-.85.1,4.43,4.43,0,0,1-1.35-.21,3.69,3.69,0,0,1-1.16-.61l.44-.82a1.91,1.91,0,0,0,.32.24,2.77,2.77,0,0,0,.48.26,4.31,4.31,0,0,0,.61.19,2.71,2.71,0,0,0,.69.08,1.49,1.49,0,0,0,.85-.2.64.64,0,0,0,.3-.58.61.61,0,0,0-.11-.39,1.09,1.09,0,0,0-.33-.27,3,3,0,0,0-.52-.2l-.7-.19a7.24,7.24,0,0,1-.79-.25,2.39,2.39,0,0,1-.56-.32,1.34,1.34,0,0,1-.34-.44,1.46,1.46,0,0,1-.11-.61,1.75,1.75,0,0,1,.16-.79,1.78,1.78,0,0,1,.46-.59,2.05,2.05,0,0,1,.71-.35,2.78,2.78,0,0,1,.86-.11,3.23,3.23,0,0,1,1.15.19,4,4,0,0,1,.91.49Zm6.27-.58h-2v5.22h-1V40.27h-2v-.85h5Zm1,5.22V39.43h1v6.06Zm6.73-.75a2.31,2.31,0,0,1-1.74.79,2.23,2.23,0,0,1-1.1-.26,2.78,2.78,0,0,1-.9-.69,3.13,3.13,0,0,1-.6-1,3.21,3.21,0,0,1,.6-3.3,2.8,2.8,0,0,1,.9-.66,2.94,2.94,0,0,1,2.57.11,2.42,2.42,0,0,1,.88,1l-.73.53a1.76,1.76,0,0,0-.68-.75,1.88,1.88,0,0,0-.93-.25,1.53,1.53,0,0,0-.76.19,1.86,1.86,0,0,0-.59.49,2.24,2.24,0,0,0-.37.7,2.63,2.63,0,0,0-.13.84,2.32,2.32,0,0,0,.14.86,2.15,2.15,0,0,0,.41.7,1.85,1.85,0,0,0,.61.47,1.64,1.64,0,0,0,.76.18,2.17,2.17,0,0,0,1.66-.9v-.64H217.3v-.71h2.08v3.07h-.81Zm6.28-.1v.85H220.7V39.42h4.08v.85h-3.12V42h2.71v.8h-2.71v1.85Z"/><path class="cls-1" d="M103.68,51v5.54h-1.17V51H100.4V50h5.39v1Z"/><path class="cls-1" d="M107.07,56.56V50h1.17v2.84h3.46V50h1.17v6.55H111.7V53.88h-3.46v2.68Z"/><path class="cls-1" d="M119.69,50v1H116v1.73h3.33v1H116v1.75h3.83v1h-5V50Z"/><path class="cls-1" d="M121.31,56.56V50h1.18v2.84h3.45V50h1.18v6.55h-1.18V53.88h-3.45v2.68Z"/><path class="cls-1" d="M131.15,50.88a1.63,1.63,0,0,0-.84.19.65.65,0,0,0-.33.6.67.67,0,0,0,.33.6,5.12,5.12,0,0,0,1.4.46,4,4,0,0,1,1.61.68,1.58,1.58,0,0,1,.54,1.3,1.67,1.67,0,0,1-.68,1.39,2.89,2.89,0,0,1-1.8.53,4.36,4.36,0,0,1-2.9-1.06l.74-.83a3.44,3.44,0,0,0,2.19.86,1.54,1.54,0,0,0,.9-.23.7.7,0,0,0,.33-.61.67.67,0,0,0-.31-.59,3.59,3.59,0,0,0-1.08-.38,9,9,0,0,1-1.17-.32,2.55,2.55,0,0,1-.71-.38,1.53,1.53,0,0,1-.61-1.34,1.59,1.59,0,0,1,.7-1.4,3,3,0,0,1,1.74-.49,4.32,4.32,0,0,1,1.32.2,3.44,3.44,0,0,1,1.13.58l-.62.83a2.74,2.74,0,0,0-.84-.43A3.46,3.46,0,0,0,131.15,50.88Z"/><path class="cls-1" d="M138.49,55.55a2.56,2.56,0,0,0,1-.19,3.44,3.44,0,0,0,.91-.61l.76.73a3.57,3.57,0,0,1-2.68,1.15,3.75,3.75,0,0,1-2.62-1,3.33,3.33,0,0,1,0-4.85,3.81,3.81,0,0,1,2.68-1,3.6,3.6,0,0,1,2.7,1.12l-.75.77a3.22,3.22,0,0,0-.94-.63,2.73,2.73,0,0,0-1-.18,2.55,2.55,0,0,0-1.77.64,2.11,2.11,0,0,0-.72,1.64,2.23,2.23,0,0,0,.71,1.67A2.41,2.41,0,0,0,138.49,55.55Z"/><path class="cls-1" d="M145.82,55.55a2.54,2.54,0,0,0,1-.19,3.33,3.33,0,0,0,.92-.61l.76.73a3.59,3.59,0,0,1-2.69,1.15,3.73,3.73,0,0,1-2.61-1,3.12,3.12,0,0,1-1-2.42,3.18,3.18,0,0,1,1.05-2.43,3.81,3.81,0,0,1,2.68-1A3.62,3.62,0,0,1,148.64,51l-.75.77a3.35,3.35,0,0,0-.94-.63,2.76,2.76,0,0,0-1-.18,2.52,2.52,0,0,0-1.77.64,2.11,2.11,0,0,0-.72,1.64,2.23,2.23,0,0,0,.71,1.67A2.41,2.41,0,0,0,145.82,55.55Z"/><path class="cls-1" d="M149.87,56.43a.69.69,0,0,1-.21-.5.65.65,0,0,1,.21-.49.73.73,0,0,1,.53-.2.71.71,0,0,1,.52.2.63.63,0,0,1,.22.49.66.66,0,0,1-.22.5.75.75,0,0,1-.52.2A.78.78,0,0,1,149.87,56.43Z"/><path class="cls-1" d="M155.93,55.55a2.59,2.59,0,0,0,1-.19,3.44,3.44,0,0,0,.91-.61l.76.73A3.57,3.57,0,0,1,156,56.63a3.73,3.73,0,0,1-2.62-1,3.12,3.12,0,0,1-1-2.42,3.15,3.15,0,0,1,1.06-2.43,3.79,3.79,0,0,1,2.68-1,3.61,3.61,0,0,1,2.7,1.12l-.75.77a3.22,3.22,0,0,0-.94-.63,2.73,2.73,0,0,0-1-.18,2.55,2.55,0,0,0-1.77.64,2.11,2.11,0,0,0-.72,1.64,2.23,2.23,0,0,0,.71,1.67A2.41,2.41,0,0,0,155.93,55.55Z"/><path class="cls-1" d="M165.76,55.65a4,4,0,0,1-5.22,0,3.28,3.28,0,0,1,0-4.83,4,4,0,0,1,5.22,0,3.3,3.3,0,0,1,0,4.83Zm-.87-4.09a2.55,2.55,0,0,0-3.49,0,2.34,2.34,0,0,0,0,3.36,2.55,2.55,0,0,0,3.49,0,2.32,2.32,0,0,0,0-3.36Z"/><path class="cls-1" d="M168,56.43a.69.69,0,0,1-.21-.5.65.65,0,0,1,.21-.49.71.71,0,0,1,.52-.2.73.73,0,0,1,.53.2.63.63,0,0,1,.22.49.66.66,0,0,1-.22.5.78.78,0,0,1-.53.2A.75.75,0,0,1,168,56.43Z"/><path class="cls-1" d="M172.3,55.06a1.87,1.87,0,0,0,2.59,0,2,2,0,0,0,.48-1.42V50h1.18v3.67a2.82,2.82,0,0,1-.83,2.18,3.34,3.34,0,0,1-4.24,0,2.82,2.82,0,0,1-.83-2.18V50h1.18v3.63A2.06,2.06,0,0,0,172.3,55.06Z"/><path class="cls-1" d="M178.39,50h1.17v3.2l3.19-3.2h1.49l-2.8,2.87,2.84,3.68h-1.39l-2.31-2.87-1,1v1.84h-1.17Z"/></svg>