<svg id="Group_9947" data-name="Group 9947" xmlns="http://www.w3.org/2000/svg" xmlns:xlink="http://www.w3.org/1999/xlink" width="113.721" height="10.398" viewBox="0 0 113.721 10.398">
  <defs>
    <clipPath id="clip-path">
      <path id="Path_5947" data-name="Path 5947" d="M0,783.08v9.132l.146.277a.876.876,0,0,0,.539.306H12.438a.777.777,0,0,0,.073-1.544H1.5V783.08l-.117-.233a.8.8,0,0,0-.583-.335.832.832,0,0,0-.8.568" transform="translate(0 -782.512)" fill="#bcdd37"/>
    </clipPath>
    <clipPath id="clip-path-2">
      <path id="Path_5948" data-name="Path 5948" d="M120.174,786.59a.792.792,0,0,0-.641.583v5.039l.146.277a.653.653,0,0,0,.255.2,2.862,2.862,0,0,0,.284.1h11.754a.826.826,0,0,0,.728-.728.751.751,0,0,0-.656-.816H121.033v-3.117h9.788a1.634,1.634,0,0,0,.262-.1q.116-.058.233-.131l.189-.35a.782.782,0,0,0-.015-.4,1.282,1.282,0,0,0-.175-.328l-.422-.233Zm.044-4.078a.908.908,0,0,0-.685.568,1,1,0,0,0,.022.408,1.082,1.082,0,0,0,.168.335l.451.218h11.87l.393-.189a.831.831,0,0,0,.175-.248,1.3,1.3,0,0,0,.087-.291.751.751,0,0,0-.685-.8Z" transform="translate(-119.523 -782.512)" fill="#bcdd37"/>
    </clipPath>
    <clipPath id="clip-path-3">
      <path id="Path_5949" data-name="Path 5949" d="M239.753,790.945a1.953,1.953,0,0,1-.539-1.151v-4.282a2.057,2.057,0,0,1,.452-1.078,1.3,1.3,0,0,1,.816-.393H248a1.878,1.878,0,0,1,.845.393,1.416,1.416,0,0,1,.5,1v4.471a1.952,1.952,0,0,1-.568,1.078l-.7.262h-7.544a1.371,1.371,0,0,1-.772-.306m.772-8.433a3.223,3.223,0,0,0-1.821.728,3.517,3.517,0,0,0-.99,2v4.792a3.673,3.673,0,0,0,.757,1.806,3.109,3.109,0,0,0,2.054.961h7.5a3.114,3.114,0,0,0,1.777-.7,3.34,3.34,0,0,0,1.078-2.3v-4.282a3.449,3.449,0,0,0-.728-1.923,3.406,3.406,0,0,0-2.228-1.078Z" transform="translate(-237.714 -782.512)" fill="#bcdd37"/>
    </clipPath>
    <clipPath id="clip-path-4">
      <path id="Path_5950" data-name="Path 5950" d="M362.418,782.512a3.073,3.073,0,0,0-.954.2,2.624,2.624,0,0,0-.823.524,3.243,3.243,0,0,0-.7,1,4.908,4.908,0,0,0-.335,1.151v4.937a3.552,3.552,0,0,0,.248.823,2.887,2.887,0,0,0,.481.75,2.611,2.611,0,0,0,.961.619,5.123,5.123,0,0,0,1.121.269H370.5a3.449,3.449,0,0,0,.735-.16,2.491,2.491,0,0,0,.648-.335,2.206,2.206,0,0,0,.648-.816,2.7,2.7,0,0,0,.24-.961l-.073-.583a.693.693,0,0,0-.211-.248,2.013,2.013,0,0,0-.284-.175.813.813,0,0,0-.408.015,1.234,1.234,0,0,0-.335.175.937.937,0,0,0-.233.619,1.309,1.309,0,0,1-.146.619l-.51.306H362.3a1.412,1.412,0,0,1-.444-.131,2.805,2.805,0,0,1-.415-.248,1.719,1.719,0,0,1-.226-.43,2.158,2.158,0,0,1-.109-.459v-4.355a2.135,2.135,0,0,1,.146-.6,2.574,2.574,0,0,1,.306-.553,1.419,1.419,0,0,1,.415-.3,1.97,1.97,0,0,1,.444-.138h8.156l.51.233a.687.687,0,0,1,.284.619.909.909,0,0,0,.211.663l.393.233.451-.044a.783.783,0,0,0,.277-.211,1.3,1.3,0,0,0,.189-.3,2.842,2.842,0,0,0-.073-.954,2.3,2.3,0,0,0-.422-.852,2.212,2.212,0,0,0-.874-.655,4.392,4.392,0,0,0-1.019-.262Z" transform="translate(-359.607 -782.512)" fill="#bcdd37"/>
    </clipPath>
    <clipPath id="clip-path-5">
      <path id="Path_5951" data-name="Path 5951" d="M496.321,782.549a.956.956,0,0,0-.306.138.785.785,0,0,0-.24.481v3.889H485.652V783.08l-.116-.233a.853.853,0,0,0-.269-.226,1.11,1.11,0,0,0-.313-.109.806.806,0,0,0-.8.568v9.132l.146.277a.653.653,0,0,0,.255.2,2.867,2.867,0,0,0,.284.1l.393-.073a.807.807,0,0,0,.24-.219,2.727,2.727,0,0,0,.182-.291v-3.656h10.122v3.583l.16.349a1.115,1.115,0,0,0,.248.189,1.306,1.306,0,0,0,.291.116.786.786,0,0,0,.845-.728V783.24a.692.692,0,0,0-.685-.728,1.35,1.35,0,0,0-.313.036" transform="translate(-484.152 -782.512)" fill="#bcdd37"/>
    </clipPath>
    <clipPath id="clip-path-6">
      <path id="Path_5952" data-name="Path 5952" d="M609.773,782.417a.811.811,0,0,0-.2,1.034l3.131,4.675-6.365.014a.565.565,0,0,0-.7.379l-1.981,3.146a1.045,1.045,0,0,0,0,.35.677.677,0,0,0,.146.306q.407.509,1.107.1l1.821-2.8h6.977l1.777,2.738a.761.761,0,0,0,.27.175,1.9,1.9,0,0,0,.3.087,2.152,2.152,0,0,0,.291-.073,1.221,1.221,0,0,0,.393-.335.871.871,0,0,0-.029-.845l-5.928-8.87a.877.877,0,0,0-.57-.264.668.668,0,0,0-.434.177" transform="translate(-603.641 -782.24)" fill="#bcdd37"/>
    </clipPath>
    <clipPath id="clip-path-7">
      <path id="Path_5953" data-name="Path 5953" d="M725.888,782.57a.732.732,0,0,0-.291.175l-.189.335v9.132l.117.233a.714.714,0,0,0,.269.233,2.106,2.106,0,0,0,.3.116.814.814,0,0,0,.815-.612v-9.059l-.16-.306a.643.643,0,0,0-.248-.219,1.3,1.3,0,0,0-.291-.087,1.025,1.025,0,0,0-.32.058" transform="translate(-725.407 -782.512)" fill="#bcdd37"/>
    </clipPath>
    <clipPath id="clip-path-8">
      <path id="Path_5954" data-name="Path 5954" d="M749.812,782.754v9.132l.146.277a.876.876,0,0,0,.539.306l.393-.073a1.065,1.065,0,0,0,.422-.51v-7.428l10.676,7.865q.844.335.99-.583v-8.826a.851.851,0,0,0-.685-.728.973.973,0,0,0-.582.189l-.277.466v7.282l-10.821-7.938a.958.958,0,0,0-.266-.043q-.455,0-.535.611" transform="translate(-749.812 -782.143)" fill="#bcdd37"/>
    </clipPath>
    <clipPath id="clip-path-9">
      <path id="Path_5955" data-name="Path 5955" d="M875.9,782.512a3.84,3.84,0,0,0-2.01.728,2.724,2.724,0,0,0-.917,1.617v.932a2.618,2.618,0,0,0,.568,1.267,3.511,3.511,0,0,0,2.359,1.078h7.384a1.721,1.721,0,0,1,.816.35,1.239,1.239,0,0,1,.5.918v.582a1.415,1.415,0,0,1-1.34,1.267H875.24a1.012,1.012,0,0,1-.59-.422,1.317,1.317,0,0,1-.2-.728q0-.422-.568-.583a.872.872,0,0,0-.561.073,1.159,1.159,0,0,0-.357.51v.5a2.791,2.791,0,0,0,.539,1.311,2.4,2.4,0,0,0,1.733.889h7.894a3.67,3.67,0,0,0,1.966-.728,3.055,3.055,0,0,0,1.034-2.126v-.5a3.229,3.229,0,0,0-.655-1.733,3.459,3.459,0,0,0-2.228-1.122h-7.443a2.087,2.087,0,0,1-.961-.379.977.977,0,0,1-.379-.772,1.579,1.579,0,0,1,.233-.845,1.836,1.836,0,0,1,1.107-.553h7.982q.728.218.765.663a2.2,2.2,0,0,0,.138.677.9.9,0,0,0,.481.408.962.962,0,0,0,.655-.16.8.8,0,0,0,.306-.539,2.669,2.669,0,0,0-.655-1.806,2.747,2.747,0,0,0-1.762-.772Z" transform="translate(-872.968 -782.512)" fill="#bcdd37"/>
    </clipPath>
  </defs>
  <g id="Group_9930" data-name="Group 9930" transform="translate(0 0.043)">
    <g id="Group_9929" data-name="Group 9929" clip-path="url(#clip-path)">
      <rect id="Rectangle_4742" data-name="Rectangle 4742" width="10.327" height="13.201" transform="matrix(0.003, -1, 1, 0.003, -0.035, 10.283)" fill="#bcdd37"/>
    </g>
  </g>
  <g id="Group_9931" data-name="Group 9931" transform="translate(13.767 0.043)" clip-path="url(#clip-path-2)">
    <rect id="Rectangle_4743" data-name="Rectangle 4743" width="10.327" height="13.221" transform="translate(-0.044 10.283) rotate(-89.805)" fill="#bcdd37"/>
  </g>
  <g id="Group_9933" data-name="Group 9933" transform="translate(27.381 0.043)" clip-path="url(#clip-path-3)">
    <rect id="Rectangle_4744" data-name="Rectangle 4744" width="10.327" height="13.201" transform="matrix(0.003, -1, 1, 0.003, -0.035, 10.283)" fill="#bcdd37"/>
  </g>
  <g id="Group_9935" data-name="Group 9935" transform="translate(41.422 0.043)" clip-path="url(#clip-path-4)">
    <rect id="Rectangle_4745" data-name="Rectangle 4745" width="10.328" height="13.347" transform="matrix(0.003, -1, 1, 0.003, -0.035, 10.283)" fill="#bcdd37"/>
  </g>
  <g id="Group_9937" data-name="Group 9937" transform="translate(55.768 0.043)" clip-path="url(#clip-path-5)">
    <rect id="Rectangle_4746" data-name="Rectangle 4746" width="10.327" height="13.201" transform="translate(-0.035 10.283) rotate(-89.805)" fill="#bcdd37"/>
  </g>
  <g id="Group_9939" data-name="Group 9939" transform="translate(69.531 0.011)" clip-path="url(#clip-path-6)">
    <rect id="Rectangle_4747" data-name="Rectangle 4747" width="10.5" height="13.27" transform="matrix(0.003, -1, 1, 0.003, -0.04, 10.455)" fill="#bcdd37"/>
  </g>
  <g id="Group_9941" data-name="Group 9941" transform="translate(83.557 0.043)" clip-path="url(#clip-path-7)">
    <rect id="Rectangle_4748" data-name="Rectangle 4748" width="10.288" height="1.535" transform="translate(-0.035 10.283) rotate(-89.805)" fill="#bcdd37"/>
  </g>
  <g id="Group_9943" data-name="Group 9943" transform="translate(86.368 0)" clip-path="url(#clip-path-8)">
    <rect id="Rectangle_4749" data-name="Rectangle 4749" width="10.447" height="13.202" transform="translate(-0.035 10.403) rotate(-89.805)" fill="#bcdd37"/>
  </g>
  <g id="Group_9945" data-name="Group 9945" transform="translate(100.554 0.043)" clip-path="url(#clip-path-9)">
    <rect id="Rectangle_4750" data-name="Rectangle 4750" width="10.327" height="13.201" transform="matrix(0.003, -1, 1, 0.003, -0.035, 10.283)" fill="#bcdd37"/>
  </g>
</svg>
