<svg id="Layer_1" data-name="Layer 1" xmlns="http://www.w3.org/2000/svg" viewBox="0 0 232.76 60"><defs><style>.cls-1{fill:#f13613;}</style></defs><path class="cls-1" d="M96.14,6.92a22.93,22.93,0,0,0-1.47-2.76A22.44,22.44,0,0,0,91.74.44a18.56,18.56,0,0,1,1,2.59c.13.45.23.88.32,1.3a8.33,8.33,0,0,1,.49,2.43,8.52,8.52,0,0,1-.16,2.1,13,13,0,0,1-5.06,5.51A58.15,58.15,0,0,1,82,18.09a35.35,35.35,0,0,1-4.9,2.11,28.69,28.69,0,0,1-3.75,1,29.25,29.25,0,0,1-8,0,29.78,29.78,0,0,1-6.85-1.78,9.17,9.17,0,0,0-6.85,0l-1.79.81-1.79-.81a9,9,0,0,0-6.8,0,29.56,29.56,0,0,1-6.8,1.78,29,29,0,0,1-7.94,0,28.45,28.45,0,0,1-3.72-1,35.32,35.32,0,0,1-4.86-2.11,57.24,57.24,0,0,1-6.32-3.72,13,13,0,0,1-3.24-2.75A13,13,0,0,1,6.59,8.86a8.06,8.06,0,0,1-.16-2.1,8.37,8.37,0,0,1,.48-2.43c.09-.42.2-.85.33-1.3a17.42,17.42,0,0,1,1-2.59A22.43,22.43,0,0,0,5.29,4.16,24.27,24.27,0,0,0,3.83,6.92a5.41,5.41,0,0,0-.48,3.89,5.3,5.3,0,0,0,1.46,2.43,87.13,87.13,0,0,0,7.45,6.64,86.08,86.08,0,0,0,7.29,5.18C26,29.22,29,30.58,30.4,30.89a2.33,2.33,0,0,1,1.62,1,2.61,2.61,0,0,1-.32,2.27,7.36,7.36,0,0,0-2.92,7c7.13,1.29,10.2-6,10.2-6a35,35,0,0,0,0,7.29,36.68,36.68,0,0,0,1.3,5.83,13.67,13.67,0,0,0,1,2.11c.37.72.69,1.27,1.11,1.26a.65.65,0,0,0,.35-.13A4.25,4.25,0,0,1,44.65,51a2.22,2.22,0,0,1,1.62.64s.21.28.16.34-.3-.07-.48-.17a2.45,2.45,0,0,0-2.59.16,2.25,2.25,0,0,0-.81,1.29,5.56,5.56,0,0,0,.67,3.2,5.69,5.69,0,0,0,3.38,2.63,13.46,13.46,0,0,0,1.62.33,16.1,16.1,0,0,0,1.62.16c.4,0,1-.06,1.63-.16a15.9,15.9,0,0,0,1.63-.33,5.73,5.73,0,0,0,3.39-2.63,5.51,5.51,0,0,0,.68-3.2A2.25,2.25,0,0,0,56.36,52a2.49,2.49,0,0,0-2.61-.16c-.18.1-.43.23-.48.17s.13-.31.15-.34A2.27,2.27,0,0,1,55.05,51a4.34,4.34,0,0,1,2,.48.66.66,0,0,0,.36.13c.42,0,.74-.54,1.11-1.26a14,14,0,0,0,1-2.11,35.33,35.33,0,0,0,1.3-5.83,34.29,34.29,0,0,0,0-7.29s3.1,7.29,10.27,6a7.32,7.32,0,0,0-2.93-7,2.58,2.58,0,0,1-.33-2.27,2.32,2.32,0,0,1,1.63-1c1.42-.31,4.4-1.67,10.93-5.83a88,88,0,0,0,7.33-5.18,86.77,86.77,0,0,0,7.5-6.64,5.21,5.21,0,0,0,1.47-2.43A5.4,5.4,0,0,0,96.14,6.92Z"/><path id="Path_3685" data-name="Path 3685" d="M113.2,20.23h13.5v12H123v3H137.5v-3h-3.91V7.05h3.91V4H123v3h3.72V17.29H113.2V7.05h3.91V4H102.58v3h3.72V32.2h-3.72v3h14.53v-3H113.2Zm39.07,15.36A11.71,11.71,0,0,0,160,33.22a8.94,8.94,0,0,0,3.58-6.89,8.29,8.29,0,0,0-3.07-6.1,23.62,23.62,0,0,0-5.4-3.17,13.88,13.88,0,0,1-4-2.38,5,5,0,0,1-1.21-3.81,4.53,4.53,0,0,1,1-3.26,3,3,0,0,1,2.19-1c2.75,0,4.33,2.05,4.7,6.1h4.56V5.18a32.9,32.9,0,0,0-8.23-1.44,11.93,11.93,0,0,0-7.59,2.19,8,8,0,0,0-3.41,6.38,8.13,8.13,0,0,0,2.93,5.87,20.87,20.87,0,0,0,5.08,3,19.08,19.08,0,0,1,4.28,2.61,5.18,5.18,0,0,1,1.4,4,5.09,5.09,0,0,1-1.21,3.68,3.64,3.64,0,0,1-2.51,1.26,5.34,5.34,0,0,1-4-2,15.12,15.12,0,0,1-2.28-5l-4.2,1.07.94,7.12A31.23,31.23,0,0,0,152.27,35.59Zm33.43,0A17.75,17.75,0,0,0,195.9,32L194,29.31c-3.21,2.09-5.91,3.11-8,3.11a8.65,8.65,0,0,1-7.22-3.53c-1.81-2.38-2.74-5.73-2.74-10s.88-7.26,2.7-9.36a9.94,9.94,0,0,1,7.77-3.49A5.06,5.06,0,0,1,190,7.23l1.95,5.5h4.52V5.88a17,17,0,0,0-8.89-2.51c-5.54,0-10,1.35-13.23,4.05a15.28,15.28,0,0,0-5.77,12.34,15.14,15.14,0,0,0,4.7,11.32Q178,35.55,185.7,35.55Zm31.39,0A17.75,17.75,0,0,0,227.29,32l-1.91-2.65c-3.21,2.09-5.91,3.12-8,3.12a8.66,8.66,0,0,1-7.22-3.54c-1.81-2.38-2.74-5.73-2.74-10s.88-7.26,2.7-9.36a9.94,9.94,0,0,1,7.77-3.49,5.06,5.06,0,0,1,3.5,1.16l2,5.5h4.52V5.88A17.05,17.05,0,0,0,219,3.37c-5.54,0-10,1.35-13.22,4.05A15.29,15.29,0,0,0,200,19.76a15.17,15.17,0,0,0,4.7,11.32q4.69,4.47,12.44,4.47Z"/><path id="Path_3684" data-name="Path 3684" d="M105.38,39.45h.9l.74,2.06.75-2.06h.91l-1.05,2.7.92,2.23,1.88-5h1L109,45.49h-.82L107,42.77l-1.14,2.72h-.82l-2.49-6.07h1l1.91,5,.89-2.23Zm11.19,5.19v.85h-4.16V39.42h4.08v.85h-3.13V42h2.71v.8h-2.71v1.85Zm.61.85,2.45-6.07h.78l2.43,6.07h-1l-.65-1.65h-2.34l-.63,1.65Zm2.84-5-1,2.64h2Zm3.77,5V39.42h.95v5.22H128v.85Zm8.81-5.22h-2v5.22h-1V40.27h-2v-.85h5Zm6-.85v6.07h-1V42.81H134.6v2.68h-1V39.42h1V42h3.05V39.42Zm3.83,7.18V38.87h.81V46.6Zm4.64-1.11V39.42h2.55a1.75,1.75,0,0,1,.75.17,2.06,2.06,0,0,1,.6.45,2.25,2.25,0,0,1,.38.63,1.83,1.83,0,0,1,.15.73,2,2,0,0,1-.14.73,2.06,2.06,0,0,1-.37.64,1.89,1.89,0,0,1-.57.44,1.75,1.75,0,0,1-.75.17h-1.64v2.11Zm1-3h1.58a.8.8,0,0,0,.66-.32,1.22,1.22,0,0,0,.18-.36,1.33,1.33,0,0,0,.07-.45,1.48,1.48,0,0,0-.08-.46,1.13,1.13,0,0,0-.21-.35,1,1,0,0,0-.31-.23.8.8,0,0,0-.37-.08h-1.52Zm7,3a2.46,2.46,0,0,1-1.16-.26,2.93,2.93,0,0,1-.91-.69,3.33,3.33,0,0,1-.79-2.12,3.29,3.29,0,0,1,.82-2.15,2.91,2.91,0,0,1,.92-.67,2.69,2.69,0,0,1,1.15-.26,2.6,2.6,0,0,1,1.16.27,3,3,0,0,1,.91.7,3.27,3.27,0,0,1,.78,2.11,3.18,3.18,0,0,1-.82,2.14,3.06,3.06,0,0,1-.91.68A2.68,2.68,0,0,1,155.1,45.53Zm-1.89-3.07a2.52,2.52,0,0,0,.14.82,2.12,2.12,0,0,0,.38.71,1.69,1.69,0,0,0,.6.49,1.64,1.64,0,0,0,.78.19,1.69,1.69,0,0,0,.8-.19,1.85,1.85,0,0,0,.6-.51,2.19,2.19,0,0,0,.37-.71,2.44,2.44,0,0,0,.13-.8,2.63,2.63,0,0,0-.13-.84,2.41,2.41,0,0,0-.39-.7,1.87,1.87,0,0,0-.6-.48,1.74,1.74,0,0,0-1.57,0,2,2,0,0,0-1,1.21A2.75,2.75,0,0,0,153.21,42.46Zm7.91-3h.9l.74,2.06.76-2.06h.9l-1,2.7.92,2.23,1.88-5h1l-2.49,6.07h-.83l-1.13-2.72-1.13,2.72h-.82l-2.5-6.07h1l1.9,5,.9-2.23Zm11.19,5.19v.85h-4.15V39.42h4.07v.85h-3.12V42h2.71v.8h-2.71v1.85Zm1.24.85V39.42h2.64a1.83,1.83,0,0,1,.76.17,2.15,2.15,0,0,1,.59.45,2.07,2.07,0,0,1,.39.63,2,2,0,0,1,.14.73A2,2,0,0,1,178,42a2.08,2.08,0,0,1-.23.53,2.1,2.1,0,0,1-.38.41,1.54,1.54,0,0,1-.49.26l1.45,2.31h-1.09l-1.33-2.11h-1.4v2.11Zm1-3h1.67a.78.78,0,0,0,.37-.09.86.86,0,0,0,.29-.25,1.22,1.22,0,0,0,.18-.36,1.29,1.29,0,0,0,.07-.43A1.11,1.11,0,0,0,177,41a1.31,1.31,0,0,0-.21-.36,1,1,0,0,0-.31-.24.77.77,0,0,0-.36-.09h-1.62Zm7.22,4.07V38.87h.8V46.6Zm4.64-1.11V39.42h2.54a1.8,1.8,0,0,1,.76.17,2,2,0,0,1,.59.45,2.07,2.07,0,0,1,.39.63,2,2,0,0,1,0,1.46,2.06,2.06,0,0,1-.37.64,2,2,0,0,1-.57.44,1.79,1.79,0,0,1-.75.17h-1.64v2.11Zm1-3h1.58a1,1,0,0,0,.37-.08.81.81,0,0,0,.28-.24,1,1,0,0,0,.19-.36,1.33,1.33,0,0,0,.07-.45,1.48,1.48,0,0,0-.08-.46,1.13,1.13,0,0,0-.21-.35,1,1,0,0,0-.31-.23.8.8,0,0,0-.37-.08h-1.52Zm4.56,3V39.42h2.64a1.75,1.75,0,0,1,.75.17,2.06,2.06,0,0,1,.6.45,2.29,2.29,0,0,1,.39.63,2,2,0,0,1,.14.73,2,2,0,0,1-.09.58,1.81,1.81,0,0,1-.24.53,1.79,1.79,0,0,1-.37.41,1.54,1.54,0,0,1-.49.26l1.44,2.31h-1.08l-1.33-2.11h-1.4v2.11Zm1-3h1.68a.78.78,0,0,0,.37-.09.86.86,0,0,0,.29-.25,1.22,1.22,0,0,0,.18-.36,1.29,1.29,0,0,0,.07-.43,1.25,1.25,0,0,0-.29-.8,1,1,0,0,0-.31-.24.77.77,0,0,0-.36-.09h-1.63ZM202,44.64v.85h-4.16V39.42h4.09v.85h-3.13V42h2.71v.8h-2.71v1.85Zm4.75-3.79a1.69,1.69,0,0,0-.25-.2,2.28,2.28,0,0,0-.38-.2,1.92,1.92,0,0,0-.48-.15,2.6,2.6,0,0,0-.56-.06,1.39,1.39,0,0,0-.86.22.75.75,0,0,0-.29.62.63.63,0,0,0,.1.36.75.75,0,0,0,.28.25,2.07,2.07,0,0,0,.47.18l.66.18c.29.07.56.16.81.24a2.36,2.36,0,0,1,.63.33,1.33,1.33,0,0,1,.41.47,1.54,1.54,0,0,1,.14.7,1.63,1.63,0,0,1-.18.81,1.47,1.47,0,0,1-.48.54,2,2,0,0,1-.7.31,3.55,3.55,0,0,1-.86.1,4.41,4.41,0,0,1-1.34-.21,3.85,3.85,0,0,1-1.17-.61l.45-.82a2.34,2.34,0,0,0,.31.24,3.29,3.29,0,0,0,.49.26,3.94,3.94,0,0,0,.61.19,2.61,2.61,0,0,0,.69.08,1.51,1.51,0,0,0,.85-.2.67.67,0,0,0,.3-.58.69.69,0,0,0-.12-.39.94.94,0,0,0-.32-.27,3.28,3.28,0,0,0-.52-.2l-.7-.19a7.24,7.24,0,0,1-.79-.25,2.39,2.39,0,0,1-.56-.32,1.22,1.22,0,0,1-.34-.44,1.46,1.46,0,0,1-.11-.61,1.75,1.75,0,0,1,.16-.79,1.78,1.78,0,0,1,.46-.59,2.05,2.05,0,0,1,.71-.35,2.78,2.78,0,0,1,.86-.11,3.23,3.23,0,0,1,1.15.19,4,4,0,0,1,.91.49Zm6.27-.58h-2v5.22h-1V40.27h-2v-.85h5Zm1,5.22V39.43h1v6.06Zm6.72-.75a2.36,2.36,0,0,1-2.84.53,2.85,2.85,0,0,1-.89-.69,3.13,3.13,0,0,1-.6-1,3.21,3.21,0,0,1,.6-3.3,2.8,2.8,0,0,1,.9-.66,2.94,2.94,0,0,1,2.57.11,2.42,2.42,0,0,1,.88,1l-.74.53a1.74,1.74,0,0,0-.67-.75,1.88,1.88,0,0,0-.93-.25,1.53,1.53,0,0,0-.76.19,1.86,1.86,0,0,0-.59.49,2.24,2.24,0,0,0-.37.7,2.64,2.64,0,0,0-.14.84,2.55,2.55,0,0,0,.15.86,2.15,2.15,0,0,0,.41.7,1.76,1.76,0,0,0,.61.47,1.64,1.64,0,0,0,.76.18,2.13,2.13,0,0,0,1.65-.9v-.64h-1.27v-.71h2.08v3.07h-.81Zm6.29-.1v.85h-4.16V39.42H227v.85h-3.12V42h2.7v.8h-2.7v1.85Z"/><path class="cls-1" d="M105.86,51v5.54h-1.17V51h-2.11V50H108v1Z"/><path class="cls-1" d="M109.25,56.56V50h1.17v2.84h3.45V50h1.18v6.55h-1.18V53.88h-3.45v2.68Z"/><path class="cls-1" d="M121.87,50v1h-3.71v1.73h3.33v1h-3.33v1.75H122v1h-5V50Z"/><path class="cls-1" d="M123.49,56.56V50h1.17v2.84h3.46V50h1.17v6.55h-1.17V53.88h-3.46v2.68Z"/><path class="cls-1" d="M133.33,50.88a1.63,1.63,0,0,0-.84.19.65.65,0,0,0-.33.6.67.67,0,0,0,.33.6,5,5,0,0,0,1.4.46,4,4,0,0,1,1.61.68,1.58,1.58,0,0,1,.54,1.3,1.7,1.7,0,0,1-.68,1.39,2.91,2.91,0,0,1-1.81.53,4.36,4.36,0,0,1-2.89-1.06l.73-.83a3.48,3.48,0,0,0,2.19.86,1.5,1.5,0,0,0,.9-.23.69.69,0,0,0,.34-.61.68.68,0,0,0-.32-.59,3.39,3.39,0,0,0-1.08-.38,8.31,8.31,0,0,1-1.16-.32,2.42,2.42,0,0,1-.71-.38,1.53,1.53,0,0,1-.61-1.34,1.59,1.59,0,0,1,.7-1.4,2.92,2.92,0,0,1,1.73-.49,4.34,4.34,0,0,1,1.33.2,3.55,3.55,0,0,1,1.13.58l-.62.83a2.74,2.74,0,0,0-.84-.43A3.46,3.46,0,0,0,133.33,50.88Z"/><path class="cls-1" d="M140.67,55.55a2.62,2.62,0,0,0,1.05-.19,3.44,3.44,0,0,0,.91-.61l.76.73a3.58,3.58,0,0,1-2.69,1.15,3.73,3.73,0,0,1-2.61-1,3.12,3.12,0,0,1-1-2.42,3.15,3.15,0,0,1,1.06-2.43,3.78,3.78,0,0,1,2.67-1A3.62,3.62,0,0,1,143.49,51l-.75.77a3.22,3.22,0,0,0-.94-.63,2.76,2.76,0,0,0-1-.18,2.55,2.55,0,0,0-1.77.64,2.11,2.11,0,0,0-.72,1.64,2.23,2.23,0,0,0,.71,1.67A2.41,2.41,0,0,0,140.67,55.55Z"/><path class="cls-1" d="M148,55.55a2.54,2.54,0,0,0,1-.19,3.48,3.48,0,0,0,.92-.61l.75.73A3.56,3.56,0,0,1,148,56.63a3.77,3.77,0,0,1-2.62-1,3.15,3.15,0,0,1-1-2.42,3.19,3.19,0,0,1,1.06-2.43,3.81,3.81,0,0,1,2.68-1,3.58,3.58,0,0,1,2.7,1.12l-.74.77a3.5,3.5,0,0,0-.94-.63,2.8,2.8,0,0,0-1-.18,2.56,2.56,0,0,0-1.78.64,2.13,2.13,0,0,0-.71,1.64,2.19,2.19,0,0,0,.71,1.67A2.4,2.4,0,0,0,148,55.55Z"/><path class="cls-1" d="M152.05,56.43a.69.69,0,0,1-.21-.5.65.65,0,0,1,.21-.49.72.72,0,0,1,.52-.2.72.72,0,0,1,.53.2.63.63,0,0,1,.22.49.66.66,0,0,1-.22.5.76.76,0,0,1-.53.2A.77.77,0,0,1,152.05,56.43Z"/><path class="cls-1" d="M158.11,55.55a2.54,2.54,0,0,0,1-.19,3.33,3.33,0,0,0,.92-.61l.76.73a3.58,3.58,0,0,1-2.69,1.15,3.73,3.73,0,0,1-2.61-1,3.12,3.12,0,0,1-1-2.42,3.15,3.15,0,0,1,1.06-2.43,3.78,3.78,0,0,1,2.67-1A3.62,3.62,0,0,1,160.93,51l-.75.77a3.35,3.35,0,0,0-.94-.63,2.76,2.76,0,0,0-1-.18,2.54,2.54,0,0,0-1.77.64,2.11,2.11,0,0,0-.72,1.64,2.23,2.23,0,0,0,.71,1.67A2.41,2.41,0,0,0,158.11,55.55Z"/><path class="cls-1" d="M167.93,55.65a4,4,0,0,1-5.21,0,3.28,3.28,0,0,1,0-4.83,4,4,0,0,1,5.21,0,3.28,3.28,0,0,1,0,4.83Zm-.86-4.09a2.55,2.55,0,0,0-3.49,0,2.34,2.34,0,0,0,0,3.36,2.55,2.55,0,0,0,3.49,0,2.34,2.34,0,0,0,0-3.36Z"/><path class="cls-1" d="M170.19,56.43a.7.7,0,0,1-.22-.5.66.66,0,0,1,.22-.49.69.69,0,0,1,.52-.2.73.73,0,0,1,.53.2.66.66,0,0,1,.22.49.7.7,0,0,1-.22.5.78.78,0,0,1-.53.2A.73.73,0,0,1,170.19,56.43Z"/><path class="cls-1" d="M174.48,55.06a1.87,1.87,0,0,0,2.59,0,2,2,0,0,0,.48-1.42V50h1.17v3.67a2.81,2.81,0,0,1-.82,2.18,3.34,3.34,0,0,1-4.24,0,2.82,2.82,0,0,1-.83-2.18V50H174v3.63A2,2,0,0,0,174.48,55.06Z"/><path class="cls-1" d="M180.56,50h1.18v3.2l3.18-3.2h1.5l-2.8,2.87,2.84,3.68h-1.4l-2.31-2.87-1,1v1.84h-1.18Z"/></svg>