<svg id="Group_9946" data-name="Group 9946" xmlns="http://www.w3.org/2000/svg" width="88.715" height="84.007" viewBox="0 0 88.715 84.007">
  <path id="Path_5785" data-name="Path 5785" d="M476.968,65.521l.334-5.115,4.48,5.554Z" transform="translate(-434.531 -53.448)" fill="#bcdd37" fill-rule="evenodd"/>
  <path id="Path_5786" data-name="Path 5786" d="M497.73,567.705l6.991,4.4-6.959,2.976Z" transform="translate(-452.901 -502.313)" fill="#bcdd37" fill-rule="evenodd"/>
  <path id="Path_5787" data-name="Path 5787" d="M601.629,4.522l3.476-2.155L598,0Z" transform="translate(-541.621 0)" fill="#bcdd37"/>
  <path id="Path_5788" data-name="Path 5788" d="M617.591,408.132l-5.7-4.366,7.741-3.985Z" transform="translate(-553.913 -353.732)" fill="#bcdd37" fill-rule="evenodd"/>
  <path id="Path_5789" data-name="Path 5789" d="M570.633,543.992l4.033,6.956-5.763-.1Z" transform="translate(-515.876 -481.331)" fill="#bcdd37" fill-rule="evenodd"/>
  <path id="Path_5790" data-name="Path 5790" d="M232.293,81.522l5.152-3.311-1.839,6.379Z" transform="translate(-218.039 -69.202)" fill="#bcdd37" fill-rule="evenodd"/>
  <path id="Path_5791" data-name="Path 5791" d="M313,562.19l-6.986-6.241,5.742-2.484Z" transform="translate(-283.271 -489.713)" fill="#bcdd37" fill-rule="evenodd"/>
  <path id="Path_5792" data-name="Path 5792" d="M430.843,571.294l7-3.93.033,7.387Z" transform="translate(-393.719 -502.011)" fill="#bcdd37" fill-rule="evenodd"/>
  <path id="Path_5793" data-name="Path 5793" d="M624,48.3l5.576,3.338-6.5,1.158Z" transform="translate(-563.813 -42.738)" fill="#bcdd37" fill-rule="evenodd"/>
  <path id="Path_5794" data-name="Path 5794" d="M639.757,30.208l-5.287-3.165,3.59-2.1Z" transform="translate(-573.891 -22.068)" fill="#bcdd37" fill-rule="evenodd"/>
  <path id="Path_5795" data-name="Path 5795" d="M498.612,479.908,507,486.224l-9,2.675Z" transform="translate(-453.143 -424.629)" fill="#bcdd37" fill-rule="evenodd"/>
  <path id="Path_5796" data-name="Path 5796" d="M587.609,449.5l2.362-10.3,5.724,4.384Z" transform="translate(-532.428 -388.607)" fill="#bcdd37" fill-rule="evenodd"/>
  <path id="Path_5797" data-name="Path 5797" d="M501.991,543.033l8.813-2.62-1.78,7.051Z" transform="translate(-456.671 -478.164)" fill="#bcdd37" fill-rule="evenodd"/>
  <path id="Path_5798" data-name="Path 5798" d="M369.664,257.91l7.568.91-1.08,7.444Z" transform="translate(-339.587 -228.202)" fill="#bcdd37" fill-rule="evenodd"/>
  <path id="Path_5799" data-name="Path 5799" d="M452.919,202.149l-.679-6.7,7.738,5.663Z" transform="translate(-412.651 -172.936)" fill="#bcdd37" fill-rule="evenodd"/>
  <path id="Path_5800" data-name="Path 5800" d="M629.653,602.858l8.294-.931-4.484,6.6Z" transform="translate(-569.628 -532.593)" fill="#bcdd37" fill-rule="evenodd"/>
  <path id="Path_5801" data-name="Path 5801" d="M595.651,540.169l-3.143,6.433-4.109-7.085Z" transform="translate(-533.127 -477.372)" fill="#bcdd37" fill-rule="evenodd"/>
  <path id="Path_5802" data-name="Path 5802" d="M226.669,393.3l-3.128,8.736-2.314-9.485Z" transform="translate(-208.247 -347.336)" fill="#bcdd37" fill-rule="evenodd"/>
  <path id="Path_5803" data-name="Path 5803" d="M390.811,105.951l-5.1-7.633,7.663,1.045Z" transform="translate(-353.784 -86.994)" fill="#bcdd37" fill-rule="evenodd"/>
  <path id="Path_5804" data-name="Path 5804" d="M377.561,181.622l-7.394,5.779.367-7.251Z" transform="translate(-340.031 -159.399)" fill="#bcdd37" fill-rule="evenodd"/>
  <path id="Path_5805" data-name="Path 5805" d="M376.588,202.368l7.428-5.8.687,6.781Z" transform="translate(-345.714 -173.922)" fill="#bcdd37" fill-rule="evenodd"/>
  <path id="Path_5806" data-name="Path 5806" d="M598.974,483.864l-.67,6.377-7.164-.644Z" transform="translate(-535.552 -428.129)" fill="#bcdd37" fill-rule="evenodd"/>
  <path id="Path_5807" data-name="Path 5807" d="M220.541,313.653l-5.014,6.532.3-7.137Z" transform="translate(-203.204 -276.989)" fill="#bcdd37" fill-rule="evenodd"/>
  <path id="Path_5808" data-name="Path 5808" d="M293.467,234.82l2.14-9.36,4.99,3.448Z" transform="translate(-272.167 -199.49)" fill="#bcdd37" fill-rule="evenodd"/>
  <path id="Path_5809" data-name="Path 5809" d="M302.786,338.89l-2.074,11.323-5.053-4.982Z" transform="translate(-274.106 -299.854)" fill="#bcdd37" fill-rule="evenodd"/>
  <path id="Path_5810" data-name="Path 5810" d="M515.127,609.641l-5.782,7.593-7.637-4.554,7.359-3.148Z" transform="translate(-456.42 -539.322)" fill="#bcdd37" fill-rule="evenodd"/>
  <path id="Path_5811" data-name="Path 5811" d="M360.525,435.675l-6.292-5.663,7.671-3.076Z" transform="translate(-325.934 -377.758)" fill="#bcdd37" fill-rule="evenodd"/>
  <path id="Path_5812" data-name="Path 5812" d="M239.065,313.442l-.177,8.694-5.876-.809Z" transform="translate(-218.675 -277.338)" fill="#bcdd37" fill-rule="evenodd"/>
  <path id="Path_5813" data-name="Path 5813" d="M206.032,251.6l1.62-5.782,3.362,6.422Z" transform="translate(-194.803 -217.504)" fill="#bcdd37" fill-rule="evenodd"/>
  <path id="Path_5814" data-name="Path 5814" d="M248.891,239.152q-1.594-3.038-3.182-6.079l5.077-2.207Z" transform="translate(-229.91 -204.273)" fill="#bcdd37" fill-rule="evenodd"/>
  <path id="Path_5815" data-name="Path 5815" d="M298.385,328.4l.143-7.006,5.882,1.646Z" transform="translate(-276.518 -284.374)" fill="#bcdd37" fill-rule="evenodd"/>
  <path id="Path_5816" data-name="Path 5816" d="M347.676,45.062l-3.292-5.9,6.35.731Z" transform="translate(-317.218 -34.649)" fill="#bcdd37" fill-rule="evenodd"/>
  <path id="Path_5817" data-name="Path 5817" d="M511.724,383.011l5.917,5.726-10.8,4.112Z" transform="translate(-460.961 -338.893)" fill="#bcdd37" fill-rule="evenodd"/>
  <path id="Path_5818" data-name="Path 5818" d="M506.886,442.943l10.948-4.168-2.427,10.585Z" transform="translate(-461.002 -388.234)" fill="#bcdd37" fill-rule="evenodd"/>
  <path id="Path_5819" data-name="Path 5819" d="M444.144,383.345l-4.922,9.914-.181-.136,0,.033-7.666-5.248Z" transform="translate(-394.188 -339.189)" fill="#bcdd37" fill-rule="evenodd"/>
  <path id="Path_5820" data-name="Path 5820" d="M272.5,456.483l1.4,9.063-10.44-4.684Z" transform="translate(-245.622 -403.902)" fill="#bcdd37" fill-rule="evenodd"/>
  <path id="Path_5821" data-name="Path 5821" d="M254.927,503.949l9.942,4.461-5.659,2.448Z" transform="translate(-238.066 -445.901)" fill="#bcdd37" fill-rule="evenodd"/>
  <path id="Path_5822" data-name="Path 5822" d="M261.815,410.022l-8.9,4.311,3.471-9.692,5.42,5.343-.026.01Z" transform="translate(-236.29 -358.031)" fill="#bcdd37" fill-rule="evenodd"/>
  <path id="Path_5823" data-name="Path 5823" d="M299.739,147.578l-4.808,2.983-2.536-4.692Z" transform="translate(-271.218 -129.067)" fill="#bcdd37" fill-rule="evenodd"/>
  <path id="Path_5824" data-name="Path 5824" d="M296.029,87.995l5.267,6.362L295.048,92.9Z" transform="translate(-273.566 -77.859)" fill="#bcdd37" fill-rule="evenodd"/>
  <path id="Path_5825" data-name="Path 5825" d="M292.427,44.2l-6.4-1.689,4.018-2.59Z" transform="translate(-265.579 -35.323)" fill="#bcdd37" fill-rule="evenodd"/>
  <path id="Path_5826" data-name="Path 5826" d="M368.519,117.6q.835-3.231,1.672-6.462l5.295,7.921Z" transform="translate(-338.574 -98.339)" fill="#bcdd37" fill-rule="evenodd"/>
  <path id="Path_5827" data-name="Path 5827" d="M315.326,183.276l5.632-3.495-.361,7.137Z" transform="translate(-291.508 -159.073)" fill="#bcdd37" fill-rule="evenodd"/>
  <path id="Path_5828" data-name="Path 5828" d="M259.164,160.975l2.964,5.484-6.041,2.626Z" transform="translate(-239.093 -142.433)" fill="#bcdd37" fill-rule="evenodd"/>
  <path id="Path_5829" data-name="Path 5829" d="M199.714,132.929l2.3-5.517,2.821,2.2Z" transform="translate(-189.213 -112.736)" fill="#bcdd37" fill-rule="evenodd"/>
  <path id="Path_5830" data-name="Path 5830" d="M218.019,172.731l-2.315-3.323,5.7-2.543Z" transform="translate(-203.361 -147.645)" fill="#bcdd37" fill-rule="evenodd"/>
  <path id="Path_5831" data-name="Path 5831" d="M448.017,267.036l-9.586,3.2,1.184-8.161Z" transform="translate(-400.432 -231.884)" fill="#bcdd37" fill-rule="evenodd"/>
  <path id="Path_5832" data-name="Path 5832" d="M463.359,317.285l-10.575-4.1,9.534-3.178Z" transform="translate(-413.133 -274.302)" fill="#bcdd37" fill-rule="evenodd"/>
  <path id="Path_5833" data-name="Path 5833" d="M585.372,618.5l-9.393,1.568,5.548-7.286Z" transform="translate(-522.137 -542.198)" fill="#bcdd37" fill-rule="evenodd"/>
  <path id="Path_5834" data-name="Path 5834" d="M678.4,480.486l.241,5.152-6.71-5.2Z" transform="translate(-607.039 -425.099)" fill="#bcdd37" fill-rule="evenodd"/>
  <path id="Path_5835" data-name="Path 5835" d="M660.195,483.1l6.827,5.29-7.5,1.139Z" transform="translate(-596.055 -427.451)" fill="#bcdd37" fill-rule="evenodd"/>
  <path id="Path_5836" data-name="Path 5836" d="M372.391,332.4l7.341.531-1.915,8.5Z" transform="translate(-342 -294.116)" fill="#bcdd37" fill-rule="evenodd"/>
  <path id="Path_5837" data-name="Path 5837" d="M428.9,350.345l2-8.72,10.752,4.165Z" transform="translate(-391.996 -302.274)" fill="#bcdd37" fill-rule="evenodd"/>
  <path id="Path_5838" data-name="Path 5838" d="M350.473,342.007l5.193,8.642-.231.083.025.017-7.11,2.851Z" transform="translate(-320.728 -302.612)" fill="#bcdd37" fill-rule="evenodd"/>
  <path id="Path_5839" data-name="Path 5839" d="M434.3,61.813l-4.738-5.345,5.09-.058Z" transform="translate(-392.583 -49.912)" fill="#bcdd37" fill-rule="evenodd"/>
  <path id="Path_5840" data-name="Path 5840" d="M395.934,53.012l4.207,5.507-6.905-.942Z" transform="translate(-360.443 -46.906)" fill="#bcdd37" fill-rule="evenodd"/>
  <path id="Path_5841" data-name="Path 5841" d="M669.782,534.782l-2.4,6.636-5.125-5.495Z" transform="translate(-598.481 -473.182)" fill="#bcdd37" fill-rule="evenodd"/>
  <path id="Path_5842" data-name="Path 5842" d="M632.655,547.88,637.8,553.4l-8.3.932Z" transform="translate(-569.497 -484.771)" fill="#bcdd37" fill-rule="evenodd"/>
  <path id="Path_5843" data-name="Path 5843" d="M414.966,515.008l8.493,5.41-7.144,4.011Z" transform="translate(-379.67 -455.686)" fill="#bcdd37" fill-rule="evenodd"/>
  <path id="Path_5844" data-name="Path 5844" d="M355.379,465.048l-.114.044.128.082-4.707,3.1-1.34-8.655Z" transform="translate(-321.609 -406.675)" fill="#bcdd37" fill-rule="evenodd"/>
  <path id="Path_5845" data-name="Path 5845" d="M423.969,432.644l-9.13,3.544,1.4-8.839Z" transform="translate(-379.558 -378.124)" fill="#bcdd37" fill-rule="evenodd"/>
  <path id="Path_5846" data-name="Path 5846" d="M426.273,487.661l-8.549-5.446,9.159-3.555Z" transform="translate(-382.111 -423.525)" fill="#bcdd37" fill-rule="evenodd"/>
  <path id="Path_5847" data-name="Path 5847" d="M335.212,12.117l1.947,2.43-6.019-.693Z" transform="translate(-305.501 -10.721)" fill="#bcdd37" fill-rule="evenodd"/>
  <path id="Path_5848" data-name="Path 5848" d="M408.343,11.449l-4.2,3.711-1.8-3.087Z" transform="translate(-368.499 -10.13)" fill="#bcdd37" fill-rule="evenodd"/>
  <path id="Path_5849" data-name="Path 5849" d="M561.094,65.343l5.9,2.971-5.314,2.66Z" transform="translate(-508.966 -57.817)" fill="#bcdd37" fill-rule="evenodd"/>
  <path id="Path_5850" data-name="Path 5850" d="M567.667,20.781l-6.7,1.59.463-4.393Z" transform="translate(-508.851 -15.908)" fill="#bcdd37" fill-rule="evenodd"/>
  <path id="Path_5851" data-name="Path 5851" d="M572.184,51.749l-5.832-2.934,6.764-1.6Z" transform="translate(-513.618 -41.773)" fill="#bcdd37" fill-rule="evenodd"/>
  <path id="Path_5852" data-name="Path 5852" d="M497.911,22.817l7-3.852-.459,4.359Z" transform="translate(-453.061 -16.78)" fill="#bcdd37" fill-rule="evenodd"/>
  <path id="Path_5853" data-name="Path 5853" d="M487.586,57.829l.061-.033,7.4.573-2.958,5.042Z" transform="translate(-443.925 -51.139)" fill="#bcdd37" fill-rule="evenodd"/>
  <path id="Path_5854" data-name="Path 5854" d="M434.155,17.1l.743,3.762-.182-.014,0,.031-4.9.056Z" transform="translate(-392.809 -15.128)" fill="#bcdd37" fill-rule="evenodd"/>
  <path id="Path_5855" data-name="Path 5855" d="M485.347,15.049,477.982,19.1l-.216-.017-.816-4.132Z" transform="translate(-434.515 -13.228)" fill="#bcdd37" fill-rule="evenodd"/>
  <path id="Path_5856" data-name="Path 5856" d="M485.347,15.049,477.982,19.1l-.216-.017-.816-4.132Z" transform="translate(-434.515 -13.228)" fill="#bcdd37" stroke="#467aab" stroke-miterlimit="22.926" stroke-width="0.216"/>
  <path id="Path_5857" data-name="Path 5857" d="M183.944,221.145l1.966-3.981-3.487-.682Z" transform="translate(-173.914 -191.546)" fill="#bcdd37" fill-rule="evenodd"/>
  <path id="Path_5858" data-name="Path 5858" d="M639.267,82.316,633.161,83.4l5.419,4.52Z" transform="translate(-572.733 -72.835)" fill="#bcdd37" fill-rule="evenodd"/>
  <path id="Path_5859" data-name="Path 5859" d="M534.543,76.5l-.727-6.835-2.809,4.789Z" transform="translate(-482.344 -61.642)" fill="#bcdd37" fill-rule="evenodd"/>
  <path id="Path_5860" data-name="Path 5860" d="M617.615,97.4c2.232.943,3.9,1.721,3.9,1.721l-1.047-3.791-2.1-1.568Z" transform="translate(-558.977 -82.962)" fill="#bcdd37" fill-rule="evenodd"/>
  <path id="Path_5861" data-name="Path 5861" d="M576.96,95.209l-5.326,2.665,4.006,2.258Z" transform="translate(-518.293 -84.242)" fill="#bcdd37" fill-rule="evenodd"/>
  <path id="Path_5862" data-name="Path 5862" d="M605.23,132.116l4.206-.075-3.019-4.119Z" transform="translate(-548.019 -113.187)" fill="#bcdd37" fill-rule="evenodd"/>
  <path id="Path_5863" data-name="Path 5863" d="M564.3,126.009l-4.029-2.339-1.221,4.4Z" transform="translate(-507.158 -109.425)" fill="#bcdd37" fill-rule="evenodd"/>
  <path id="Path_5864" data-name="Path 5864" d="M596.455,171.554l3.8.053-2.917-3.646Z" transform="translate(-540.255 -148.615)" fill="#bcdd37" fill-rule="evenodd"/>
  <path id="Path_5865" data-name="Path 5865" d="M551.48,177.311l-4.332-3.031-1.291,3.96Z" transform="translate(-495.485 -154.205)" fill="#bcdd37" fill-rule="evenodd"/>
  <path id="Path_5866" data-name="Path 5866" d="M522.631,140.24l-2.554-3.027-1.145,3.835Z" transform="translate(-471.662 -121.408)" fill="#bcdd37" fill-rule="evenodd"/>
  <path id="Path_5867" data-name="Path 5867" d="M517.27,174.656l1.657-4.956-4.215.846Z" transform="translate(-467.927 -150.153)" fill="#bcdd37" fill-rule="evenodd"/>
  <path id="Path_5868" data-name="Path 5868" d="M369.866,525.252q-.654-4.555-1.3-9.111l-4.788,3.152Z" transform="translate(-334.374 -456.689)" fill="#bcdd37" fill-rule="evenodd"/>
  <path id="Path_5869" data-name="Path 5869" d="M325.926,275.449l-5.354-5.461-3.683,5.873Z" transform="translate(-292.892 -238.89)" fill="#bcdd37" fill-rule="evenodd"/>
  <path id="Path_5870" data-name="Path 5870" d="M155.851,156.457l.467,4.415-3.507-.567Z" transform="translate(-147.711 -138.435)" fill="#bcdd37" fill-rule="evenodd"/>
  <path id="Path_5871" data-name="Path 5871" d="M145.135,228.555l1.388,2.981-3.26-1.441Z" transform="translate(-139.264 -202.229)" fill="#bcdd37" fill-rule="evenodd"/>
  <path id="Path_5872" data-name="Path 5872" d="M235.167,36.543l1.841,3.406-3.752,1.631Z" transform="translate(-218.892 -32.334)" fill="#bcdd37" fill-rule="evenodd"/>
  <path id="Path_5873" data-name="Path 5873" d="M191.175,12.568l3.094,1.1-1.441,3.158Z" transform="translate(-181.658 -11.12)" fill="#bcdd37" fill-rule="evenodd"/>
  <path id="Path_5874" data-name="Path 5874" d="M173.032,83.426l2.344-3.12,1.475,3.468Z" transform="translate(-165.604 -71.056)" fill="#bcdd37" fill-rule="evenodd"/>
  <path id="Path_5875" data-name="Path 5875" d="M127.464,97.049q.327-1.266.655-2.531l2.074,3.1Z" transform="translate(-125.285 -83.631)" fill="#bcdd37" fill-rule="evenodd"/>
  <path id="Path_5876" data-name="Path 5876" d="M112.426,154.509l-3.88-.143.825,2.31Z" transform="translate(-108.545 -136.585)" fill="#bcdd37" fill-rule="evenodd"/>
  <path id="Path_5877" data-name="Path 5877" d="M163.675,294.4l4.551,1.361-2.552-3.235Z" transform="translate(-157.325 -258.827)" fill="#bcdd37" fill-rule="evenodd"/>
  <path id="Path_5878" data-name="Path 5878" d="M335.515,90.6l-5.295-.939,3.649,4.545Z" transform="translate(-304.686 -79.331)" fill="#bcdd37" fill-rule="evenodd"/>
  <path id="Path_5879" data-name="Path 5879" d="M266.022,15.365l-2.109,2.659,3.618-.664Z" transform="translate(-246.017 -13.596)" fill="#bcdd37" fill-rule="evenodd"/>
  <path id="Path_5880" data-name="Path 5880" d="M562.655,150.836l-5.286,1.971,4.088,2.644Z" transform="translate(-505.671 -133.462)" fill="#bcdd37" fill-rule="evenodd"/>
  <path id="Path_5881" data-name="Path 5881" d="M468.774,110.659l-6.691-.26,3.43,3.919Z" transform="translate(-421.36 -97.683)" fill="#bcdd37" fill-rule="evenodd"/>
  <path id="Path_5882" data-name="Path 5882" d="M440.611,117.467l-2.191,5.5,6.386-.4Z" transform="translate(-400.422 -103.936)" fill="#bcdd37" fill-rule="evenodd"/>
  <path id="Path_5883" data-name="Path 5883" d="M447.047,166.167,441.18,167.8l5.7,4.1Z" transform="translate(-402.865 -147.027)" fill="#bcdd37" fill-rule="evenodd"/>
  <path id="Path_5884" data-name="Path 5884" d="M510.114,211.747l-6.28,1.461,5.579,4.045Z" transform="translate(-458.302 -187.356)" fill="#bcdd37" fill-rule="evenodd"/>
  <path id="Path_5885" data-name="Path 5885" d="M802.629,471.569l-1.315-2.965L800.127,474Z" transform="translate(-720.466 -414.628)" fill="#bcdd37" fill-rule="evenodd"/>
  <path id="Path_5886" data-name="Path 5886" d="M684.33,102.842l4.332-.039-3.628-4.9Z" transform="translate(-618.008 -86.622)" fill="#bcdd37" fill-rule="evenodd"/>
  <path id="Path_5887" data-name="Path 5887" d="M684.33,102.842l4.332-.039-3.628-4.9Z" transform="translate(-618.008 -86.622)" fill="#bcdd37" stroke="#1d4a57" stroke-miterlimit="22.926" stroke-width="0.216"/>
  <path id="Path_5888" data-name="Path 5888" d="M816.941,440.757l-1.618,5.476-1.293-2.979Z" transform="translate(-732.768 -389.988)" fill="#bcdd37" fill-rule="evenodd"/>
  <path id="Path_5889" data-name="Path 5889" d="M673.531,411.013l-4.341-8.291-2.016,8.244Z" transform="translate(-602.827 -356.334)" fill="#bcdd37" fill-rule="evenodd"/>
  <path id="Path_5890" data-name="Path 5890" d="M699.086,404.737l-5.873-.308,1.951,3.5Z" transform="translate(-625.867 -357.844)" fill="#bcdd37" fill-rule="evenodd"/>
  <path id="Path_5891" data-name="Path 5891" d="M704.923,315.708l-3.411,2.968-1.713-5.233Z" transform="translate(-631.694 -277.339)" fill="#bcdd37" fill-rule="evenodd"/>
  <path id="Path_5892" data-name="Path 5892" d="M677,317.484l-1.854-5.417-2.518,3.867Z" transform="translate(-607.65 -276.121)" fill="#bcdd37" fill-rule="evenodd"/>
  <path id="Path_5893" data-name="Path 5893" d="M665.053,308.842l-2.264,3.446-.8-3.938Z" transform="translate(-598.235 -272.832)" fill="#bcdd37" fill-rule="evenodd"/>
  <path id="Path_5894" data-name="Path 5894" d="M647.759,310.27l-2.19-2.275,1.417-1.416Z" transform="translate(-583.711 -271.265)" fill="#bcdd37" fill-rule="evenodd"/>
  <path id="Path_5895" data-name="Path 5895" d="M634.466,289.151l1.069,3.267,1.367-1.458Z" transform="translate(-573.887 -255.845)" fill="#bcdd37" fill-rule="evenodd"/>
  <path id="Path_5896" data-name="Path 5896" d="M688.793,363.574l1.447,4.446-4.924-.241Z" transform="translate(-618.88 -321.695)" fill="#bcdd37" fill-rule="evenodd"/>
  <path id="Path_5897" data-name="Path 5897" d="M671.367,349.165l1.186,5.416,3.26-3.847Z" transform="translate(-606.537 -308.946)" fill="#bcdd37" fill-rule="evenodd"/>
  <path id="Path_5898" data-name="Path 5898" d="M643.188,352.571l-.992-5.346-3.082,3.732Z" transform="translate(-578 -307.23)" fill="#bcdd37" fill-rule="evenodd"/>
  <path id="Path_5899" data-name="Path 5899" d="M637.565,333.129l-3.159,3.539.268-5.16Z" transform="translate(-573.834 -293.322)" fill="#bcdd37" fill-rule="evenodd"/>
  <path id="Path_5900" data-name="Path 5900" d="M610.317,333.918l.269-5.114-2.91,2.071Z" transform="translate(-550.183 -290.93)" fill="#bcdd37" fill-rule="evenodd"/>
  <path id="Path_5901" data-name="Path 5901" d="M603.24,322.1l-2.542,1.853-.908-2.412Z" transform="translate(-543.206 -284.506)" fill="#bcdd37" fill-rule="evenodd"/>
  <path id="Path_5902" data-name="Path 5902" d="M601.473,304.347l-2.851-.486.66-1.715Z" transform="translate(-542.172 -267.343)" fill="#bcdd37" fill-rule="evenodd"/>
  <path id="Path_5903" data-name="Path 5903" d="M592.394,285.879l-.68,2.044-.555-3.484Z" transform="translate(-535.569 -251.675)" fill="#bcdd37" fill-rule="evenodd"/>
  <path id="Path_5904" data-name="Path 5904" d="M634.185,382.248l-4.816-1.917.144,4.322Z" transform="translate(-569.378 -336.522)" fill="#bcdd37" fill-rule="evenodd"/>
  <path id="Path_5905" data-name="Path 5905" d="M554.958,380.026l-3.711-3.591,7.876.287Z" transform="translate(-500.254 -333.075)" fill="#bcdd37" fill-rule="evenodd"/>
  <path id="Path_5906" data-name="Path 5906" d="M592.113,382.891l.2,4.286-2.248,1.158-2.171-2.1Z" transform="translate(-532.684 -338.787)" fill="#bcdd37" fill-rule="evenodd"/>
  <path id="Path_5907" data-name="Path 5907" d="M541.765,310.185l.982,6.862,6.479.314Z" transform="translate(-491.864 -274.456)" fill="#bcdd37" fill-rule="evenodd"/>
  <path id="Path_5908" data-name="Path 5908" d="M474.693,252.375l.527,4.754-10.787-6.114,6.972-1.024Z" transform="translate(-423.44 -221.195)" fill="#bcdd37" fill-rule="evenodd"/>
  <path id="Path_5909" data-name="Path 5909" d="M826.373,383.279l1.112,3.009,1.966-2.767Z" transform="translate(-743.689 -339.131)" fill="#bcdd37" fill-rule="evenodd"/>
  <path id="Path_5910" data-name="Path 5910" d="M828.828,359.8l2.971.233-2.171-2.836Z" transform="translate(-745.861 -316.049)" fill="#bcdd37" fill-rule="evenodd"/>
  <path id="Path_5911" data-name="Path 5911" d="M837.631,350.015l-2.933.1,2.452,3.139Z" transform="translate(-751.055 -309.698)" fill="#bcdd37" fill-rule="evenodd"/>
  <path id="Path_5912" data-name="Path 5912" d="M776.355,307.227l4,2.1,1.005-2.139Z" transform="translate(-699.433 -271.8)" fill="#bcdd37" fill-rule="evenodd"/>
  <path id="Path_5913" data-name="Path 5913" d="M819.224,308.715l-5.029.975,1.028-2.271Z" transform="translate(-732.914 -272.009)" fill="#bcdd37" fill-rule="evenodd"/>
  <path id="Path_5914" data-name="Path 5914" d="M821.351,321.9l-4.662,1.155,1.949,1.813Z" transform="translate(-735.12 -284.824)" fill="#bcdd37" fill-rule="evenodd"/>
  <path id="Path_5915" data-name="Path 5915" d="M841.372,327.93l-2.078,2.252,2.489-.027Z" transform="translate(-755.121 -290.157)" fill="#bcdd37" fill-rule="evenodd"/>
  <path id="Path_5916" data-name="Path 5916" d="M859.2,320.321l-.446-2.55,2.213-.487Z" transform="translate(-772.338 -280.737)" fill="#bcdd37" fill-rule="evenodd"/>
  <path id="Path_5917" data-name="Path 5917" d="M721.465,211.893l-1.454,2.026-.6-4.244Z" transform="translate(-649.046 -185.524)" fill="#bcdd37" fill-rule="evenodd"/>
  <path id="Path_5918" data-name="Path 5918" d="M700.294,225.175l-5.183-2.958,1.19-1.693Zm-6.493-6,.42,3.048-3.495.057Z" transform="translate(-623.667 -193.928)" fill="#bcdd37" fill-rule="evenodd"/>
  <path id="Path_5919" data-name="Path 5919" d="M689.753,208.4l-3.233,3.121.264-4.24Z" transform="translate(-619.944 -183.408)" fill="#bcdd37" fill-rule="evenodd"/>
  <path id="Path_5920" data-name="Path 5920" d="M655.168,210.464l-1.878-2.29-1.7-.369,3.7-1.189Z" transform="translate(-589.038 -182.816)" fill="#bcdd37" fill-rule="evenodd"/>
  <path id="Path_5921" data-name="Path 5921" d="M694.723,145.286l-4.479.054,4.128,2.167Z" transform="translate(-623.24 -128.551)" fill="#bcdd37" fill-rule="evenodd"/>
  <path id="Path_5922" data-name="Path 5922" d="M730.642,148.174l-.379,2.145,3.042-.558Z" transform="translate(-658.65 -131.106)" fill="#bcdd37" fill-rule="evenodd"/>
  <path id="Path_5923" data-name="Path 5923" d="M738.875,164.939l-2.57.552,2.228,2.472Z" transform="translate(-663.996 -145.941)" fill="#bcdd37" fill-rule="evenodd"/>
  <path id="Path_5924" data-name="Path 5924" d="M758.182,171.2l-.7,2.8,2.24-.561Z" transform="translate(-682.738 -151.479)" fill="#bcdd37" fill-rule="evenodd"/>
  <path id="Path_5925" data-name="Path 5925" d="M761.1,193.619l-2.278.526.4,2.109Z" transform="translate(-683.92 -171.317)" fill="#bcdd37" fill-rule="evenodd"/>
  <path id="Path_5926" data-name="Path 5926" d="M766.131,197.491l-1.747,2.462,3.19-.277-.993-.854Z" transform="translate(-688.84 -174.743)" fill="#bcdd37" fill-rule="evenodd"/>
  <path id="Path_5927" data-name="Path 5927" d="M770.659,218.86l-3.237.245,2.589,1.768Z" transform="translate(-691.528 -193.651)" fill="#bcdd37" fill-rule="evenodd"/>
  <path id="Path_5928" data-name="Path 5928" d="M793.367,220.526l-.593,2.052,2.927-.571Z" transform="translate(-713.96 -195.124)" fill="#bcdd37" fill-rule="evenodd"/>
  <path id="Path_5929" data-name="Path 5929" d="M799.185,236.35l-3.031.6,2.492,1.747Z" transform="translate(-716.95 -209.126)" fill="#bcdd37" fill-rule="evenodd"/>
  <path id="Path_5930" data-name="Path 5930" d="M821.246,239.649l-.46,2.246,2.5-.614Z" transform="translate(-738.745 -212.045)" fill="#bcdd37" fill-rule="evenodd"/>
  <path id="Path_5931" data-name="Path 5931" d="M825.989,256.6l-2.555.54,2.014,1.8Z" transform="translate(-741.088 -227.046)" fill="#bcdd37" fill-rule="evenodd"/>
  <path id="Path_5932" data-name="Path 5932" d="M843.847,258.893l-.556,2.353,2.521-.2Z" transform="translate(-758.659 -229.072)" fill="#bcdd37" fill-rule="evenodd"/>
  <path id="Path_5933" data-name="Path 5933" d="M847.08,279.645l-2.7.175,1.253,1.727Z" transform="translate(-759.62 -247.434)" fill="#bcdd37" fill-rule="evenodd"/>
  <path id="Path_5934" data-name="Path 5934" d="M857.881,282.178l-1.358,1.862,2.325-.3Z" transform="translate(-770.366 -249.675)" fill="#bcdd37" fill-rule="evenodd"/>
  <path id="Path_5935" data-name="Path 5935" d="M860.231,303.294l-1.979.338-.282-1.843Z" transform="translate(-771.646 -267.027)" fill="#bcdd37" fill-rule="evenodd"/>
  <path id="Path_5936" data-name="Path 5936" d="M859.63,299.188l-2.486-1.421,2.378-.26Z" transform="translate(-770.915 -263.238)" fill="#bcdd37" fill-rule="evenodd"/>
  <path id="Path_5937" data-name="Path 5937" d="M795.187,388.379l1.193,3.348-4.7-.061Z" transform="translate(-712.99 -343.643)" fill="#bcdd37" fill-rule="evenodd"/>
  <path id="Path_5938" data-name="Path 5938" d="M767.238,389.411l-5.986,1.626,2.412,2.006Z" transform="translate(-686.069 -344.557)" fill="#bcdd37" fill-rule="evenodd"/>
  <path id="Path_5939" data-name="Path 5939" d="M725.71,405.24l2.436,2.1-2.489,1.025-3.756-.053Z" transform="translate(-651.251 -358.562)" fill="#bcdd37" fill-rule="evenodd"/>
  <path id="Path_5940" data-name="Path 5940" d="M816.721,422.16h2.321l.312,1.365-2.642,2.367Z" transform="translate(-735.141 -373.533)" fill="#bcdd37" fill-rule="evenodd"/>
  <path id="Path_5941" data-name="Path 5941" d="M789.791,476.6l-1.082,4.931-.807-3.163Z" transform="translate(-709.649 -421.705)" fill="#bcdd37" fill-rule="evenodd"/>
  <path id="Path_5942" data-name="Path 5942" d="M764.564,499.052l-3.248-.4,2.529-2.365Z" transform="translate(-686.125 -439.126)" fill="#bcdd37" fill-rule="evenodd"/>
  <path id="Path_5943" data-name="Path 5943" d="M740.79,482.263l-2.643,2.345-2.558-3.666Z" transform="translate(-663.363 -425.544)" fill="#bcdd37" fill-rule="evenodd"/>
  <path id="Path_5944" data-name="Path 5944" d="M735.475,466.69l2.035,2.466-5.741-1.557Z" transform="translate(-659.982 -412.934)" fill="#bcdd37" fill-rule="evenodd"/>
  <path id="Path_5945" data-name="Path 5945" d="M717.715,438.644l-3.241.792-1.8-3.444.8-.5,2.194,2.392Z" transform="translate(-643.082 -385.326)" fill="#bcdd37" fill-rule="evenodd"/>
  <path id="Path_5946" data-name="Path 5946" d="M579.737,673.761l3.8-4.769-9.349,1.561L578,675.94h0" transform="translate(-520.549 -591.933)" fill="#bcdd37"/>
</svg>
